<?xml version="1.0" standalone="no"?>
<!DOCTYPE svg PUBLIC "-//W3C//DTD SVG 20010904//EN"
 "http://www.w3.org/TR/2001/REC-SVG-20010904/DTD/svg10.dtd">
<svg version="1.0" xmlns="http://www.w3.org/2000/svg"
 width="1976.000000pt" height="1976.000000pt" viewBox="0 0 1976.000000 1976.000000"
 preserveAspectRatio="xMidYMid meet">
<metadata>
Created by potrace 1.14, written by Peter Selinger 2001-2017
</metadata>
<g transform="translate(0.000000,1976.000000) scale(0.100000,-0.100000)"
fill="#000000" stroke="none">
<path d="M9730 14715 c-135 -68 -251 -128 -257 -135 -7 -6 -13 -9 -13 -6 0 3
-74 -33 -164 -79 -90 -46 -167 -81 -170 -78 -3 4 -6 1 -6 -5 0 -6 -16 -16 -35
-22 -19 -6 -35 -16 -35 -21 0 -5 -3 -8 -7 -7 -10 3 -139 -60 -178 -86 -16 -12
-31 -20 -33 -18 -3 4 -222 -106 -239 -120 -7 -6 -13 -7 -13 -4 0 4 -13 -2 -30
-14 -16 -12 -30 -18 -30 -15 0 3 -12 -2 -27 -13 -16 -10 -44 -25 -63 -32 -19
-7 -46 -21 -60 -30 -14 -9 -41 -23 -60 -30 -19 -7 -42 -18 -50 -24 -8 -6 -33
-20 -55 -30 -22 -10 -51 -24 -65 -32 -80 -44 -469 -234 -479 -234 -6 0 -11 -4
-11 -8 0 -9 -109 -62 -127 -62 -6 0 -13 -4 -15 -8 -1 -5 -77 -46 -167 -90 -90
-45 -169 -87 -176 -92 -6 -5 -15 -7 -18 -3 -4 3 -7 1 -7 -5 0 -7 -3 -11 -7
-10 -5 2 -104 -46 -220 -105 -117 -59 -213 -104 -213 -100 0 4 -4 3 -8 -3 -8
-14 -1042 -534 -1042 -525 0 3 -4 1 -8 -5 -4 -7 -65 -40 -137 -75 -71 -35
-131 -67 -133 -71 -2 -5 -8 -8 -14 -8 -9 0 -132 -59 -188 -90 -14 -8 -27 -15
-30 -15 -10 -2 -105 -50 -110 -56 -4 -5 -37 -20 -50 -24 -3 0 -21 -9 -40 -20
-19 -11 -37 -20 -40 -20 -10 -3 -116 -57 -147 -75 -18 -11 -33 -16 -33 -12 0
4 -4 3 -8 -3 -9 -13 -153 -85 -169 -85 -6 0 -13 -3 -15 -7 -1 -5 -138 -75
-303 -158 -165 -82 -303 -153 -306 -158 -3 -5 -9 -8 -13 -7 -10 3 -380 -183
-384 -192 -2 -5 -10 -8 -17 -8 -7 0 -41 -16 -74 -34 -34 -19 -61 -33 -61 -32
0 2 -46 -21 -102 -50 -57 -30 -113 -57 -126 -60 -12 -4 -22 -10 -22 -15 0 -5
-9 -9 -19 -9 -11 0 -21 -3 -23 -7 -1 -5 -72 -42 -155 -83 -84 -41 -153 -79
-153 -84 0 -5 -3 -7 -6 -4 -3 3 -60 -22 -127 -55 -67 -34 -125 -60 -129 -59
-5 1 -8 -2 -8 -7 0 -4 -29 -21 -65 -36 -36 -16 -65 -32 -65 -37 0 -4 -3 -7 -7
-6 -10 3 -166 -73 -174 -85 -3 -5 -9 -8 -13 -7 -4 0 -181 -86 -394 -193 -711
-357 -1767 -889 -1769 -891 -3 -3 237 -122 295 -147 17 -8 32 -18 32 -22 0 -5
4 -6 9 -2 5 3 17 -2 25 -11 9 -8 16 -13 16 -10 0 3 82 -36 183 -87 100 -50
184 -92 187 -92 3 0 16 -7 30 -15 14 -8 32 -15 40 -16 8 -2 16 -8 18 -14 2 -5
8 -8 13 -4 5 3 9 0 9 -5 0 -6 6 -11 13 -11 7 0 130 -58 272 -129 384 -190 559
-276 565 -276 3 0 16 -7 30 -15 24 -13 172 -86 295 -145 33 -16 62 -33 63 -37
2 -4 9 -8 16 -8 7 0 120 -53 252 -118 131 -65 275 -136 319 -157 44 -21 82
-43 83 -47 2 -4 9 -5 14 -2 6 4 17 -1 25 -11 7 -11 13 -16 13 -13 0 4 60 -23
133 -60 72 -36 134 -66 137 -67 18 -4 166 -82 172 -90 4 -5 8 -6 8 -1 0 5 6 3
13 -3 8 -6 17 -8 20 -4 4 3 9 -2 13 -11 3 -9 12 -16 19 -16 7 0 61 -24 121
-54 60 -30 240 -118 399 -196 160 -77 299 -146 310 -152 11 -7 43 -23 70 -36
28 -13 82 -40 122 -59 40 -19 75 -33 78 -31 4 2 11 -5 16 -14 6 -10 16 -18 24
-18 8 0 44 -15 79 -34 35 -19 67 -32 70 -28 3 3 6 0 6 -6 0 -6 14 -13 30 -17
17 -4 30 -11 30 -16 0 -5 4 -9 10 -9 5 0 143 -66 307 -147 164 -81 301 -146
306 -145 4 1 7 -2 7 -8 0 -6 3 -9 8 -8 6 2 151 -69 882 -430 118 -59 218 -106
223 -104 4 1 7 -3 7 -10 0 -6 3 -9 6 -5 4 3 13 -1 21 -9 8 -8 19 -12 24 -9 5
4 9 1 9 -5 0 -6 4 -9 9 -6 5 3 14 -1 21 -9 7 -8 16 -12 21 -9 5 3 9 0 9 -5 0
-6 3 -10 8 -9 10 2 65 -24 73 -35 3 -5 9 -8 13 -7 4 1 126 -57 272 -129 146
-72 269 -131 275 -131 5 0 9 -5 9 -10 0 -6 3 -9 8 -8 4 1 88 -38 187 -87 99
-49 183 -88 188 -87 4 1 7 -3 7 -10 0 -6 3 -8 6 -5 4 4 19 -2 33 -12 14 -10
43 -24 64 -32 20 -7 37 -17 37 -21 0 -4 5 -8 11 -8 7 0 116 -51 243 -114 127
-63 375 -185 551 -271 176 -86 465 -229 643 -316 178 -87 328 -159 333 -159 5
0 9 -4 9 -10 0 -5 6 -10 12 -10 17 0 141 -62 150 -75 4 -5 8 -7 8 -3 0 4 62
-23 138 -61 l137 -69 76 39 c41 21 80 39 86 39 6 0 13 3 15 8 4 9 160 86 171
84 4 -1 7 2 7 7 0 5 12 12 28 16 15 3 35 14 45 22 9 9 17 12 17 7 0 -5 4 -4 8
1 6 8 454 236 472 240 3 1 124 62 270 135 146 74 273 136 283 138 9 2 17 8 17
13 0 5 6 9 14 9 8 0 21 7 30 15 8 9 17 15 18 15 10 -4 58 14 58 21 0 5 3 8 8
7 8 -2 452 219 467 233 5 5 17 9 26 9 10 0 19 3 21 8 2 6 112 63 128 67 3 1
75 37 160 80 85 43 157 79 160 80 3 1 34 16 70 35 36 19 71 35 79 36 8 2 17 7
20 11 3 5 21 15 39 22 17 8 32 18 32 24 0 6 3 8 6 4 7 -7 16 -3 304 143 135
68 247 124 250 125 3 1 111 55 240 120 129 65 237 119 240 120 3 1 61 30 130
65 69 35 127 65 130 65 7 2 347 173 397 200 23 13 44 20 47 17 4 -3 6 0 6 6 0
7 9 12 19 12 11 0 21 3 23 8 2 4 37 23 78 42 41 19 78 39 81 43 3 5 12 9 20
11 8 1 111 51 229 111 118 60 217 109 220 110 3 0 16 7 30 15 14 8 27 15 30
15 3 1 102 50 220 110 118 60 217 109 220 110 3 1 42 20 87 43 46 23 85 41 87
40 2 -2 13 6 25 16 12 11 21 16 21 12 0 -3 19 6 43 21 23 14 43 26 45 25 1 -1
78 36 171 82 93 47 171 82 175 79 3 -4 6 -1 6 5 0 10 76 50 91 48 4 -1 15 7
25 16 11 9 22 17 26 17 15 2 143 66 146 74 2 4 11 7 21 7 9 0 27 9 39 20 12
12 22 18 22 15 0 -3 46 18 103 47 56 28 105 51 110 50 4 -1 7 2 7 8 0 5 5 10
11 10 13 0 251 119 259 129 3 3 10 6 15 6 6 0 66 29 135 65 69 35 127 64 130
65 3 1 42 20 87 43 46 23 84 41 85 40 2 -2 18 7 36 20 17 13 32 20 32 16 0 -4
9 1 21 12 12 10 23 18 25 17 6 -4 539 261 542 270 2 4 8 7 12 7 11 0 223 103
230 111 3 4 12 8 20 10 8 2 75 35 147 72 73 37 135 66 137 65 2 -2 14 6 26 17
12 11 25 19 29 19 10 -2 76 30 79 39 2 4 12 7 23 7 10 0 19 5 19 10 0 6 9 10
20 10 11 0 20 5 20 10 0 6 9 10 19 10 11 0 21 3 23 8 2 4 28 19 58 33 30 14
115 55 187 92 73 37 135 66 137 65 2 -2 14 6 26 17 12 11 23 18 24 16 2 -5 80
33 87 42 3 5 8 8 10 7 7 -3 59 23 59 29 0 3 -20 15 -45 26 -25 11 -45 23 -45
27 0 5 -7 8 -15 8 -8 0 -36 12 -62 28 -26 15 -88 48 -138 72 -49 25 -92 48
-93 52 -2 5 -8 6 -13 2 -5 -3 -9 0 -9 5 0 6 -9 11 -20 11 -11 0 -20 5 -20 12
0 6 -3 8 -7 5 -3 -4 -11 -3 -17 2 -11 9 -157 84 -533 277 -114 59 -257 132
-318 164 -60 31 -157 81 -215 111 -58 29 -108 57 -111 62 -3 5 -10 9 -15 9
-14 -1 -77 30 -96 46 -10 8 -18 12 -18 7 0 -4 -10 -1 -22 7 -13 9 -117 64
-233 123 -115 59 -213 113 -217 119 -4 6 -8 8 -8 4 0 -4 -57 22 -127 59 -199
102 -510 261 -598 306 -44 22 -88 47 -99 56 -10 9 -20 15 -22 13 -9 -5 -437
216 -446 231 -4 7 -8 8 -8 4 0 -7 -315 151 -371 186 -13 8 -35 18 -49 22 -14
4 -27 11 -30 14 -5 6 -72 41 -420 218 -63 32 -117 61 -120 64 -5 5 -38 21 -50
23 -3 1 -12 6 -20 11 -14 9 -98 52 -420 216 -69 35 -128 67 -131 72 -3 5 -8 8
-10 6 -2 -1 -40 16 -84 39 -44 23 -84 41 -89 41 -5 0 -12 3 -15 8 -3 4 -80 46
-171 92 -91 47 -205 106 -255 133 -49 26 -97 50 -105 54 -28 11 -55 24 -117
58 -35 19 -63 32 -63 29 0 -4 -8 1 -17 9 -10 8 -40 26 -68 40 -58 29 -430 219
-620 318 -71 37 -177 91 -235 121 -58 29 -107 56 -110 59 -3 3 -9 6 -15 7 -5
1 -62 29 -125 63 -63 34 -119 63 -125 64 -5 1 -17 6 -25 11 -8 5 -58 32 -110
58 -52 27 -101 53 -107 59 -7 6 -13 7 -13 3 0 -4 -6 -3 -12 3 -13 10 -185 100
-463 241 -77 39 -145 75 -151 80 -6 5 -20 12 -32 15 -12 4 -22 12 -22 17 0 5
-3 8 -7 7 -11 -3 -57 13 -63 22 -3 3 -33 19 -67 35 -35 16 -63 32 -63 37 0 4
-5 8 -11 8 -11 0 -138 62 -226 111 -29 16 -53 27 -53 23 0 -4 -8 0 -17 8 -10
8 -65 38 -123 68 -58 29 -150 76 -205 105 -174 91 -594 305 -597 304 -2 0
-113 -56 -248 -124z m395 -1855 c0 -1 20 -3 45 -5 56 -4 96 -12 110 -20 5 -3
10 -1 10 6 0 8 4 8 13 2 6 -6 19 -11 27 -11 8 0 24 -2 35 -5 11 -3 40 -8 65
-13 25 -4 48 -9 53 -10 4 -1 9 -2 12 -3 3 0 7 -1 10 -1 3 -1 23 -7 45 -15 22
-8 40 -12 40 -10 0 2 30 -7 68 -21 37 -14 72 -26 77 -28 6 -1 27 -10 49 -19
21 -9 40 -17 43 -17 11 0 158 -75 161 -82 2 -4 8 -8 14 -8 13 0 196 -120 240
-157 73 -62 268 -265 268 -279 0 -4 6 -13 35 -47 11 -12 43 -63 78 -122 67
-114 176 -400 190 -495 3 -19 7 -42 10 -50 3 -8 9 -35 12 -60 3 -25 8 -56 10
-70 2 -14 7 -70 10 -125 4 -55 9 -102 10 -104 2 -1 0 -13 -5 -26 -5 -13 -6
-26 -2 -30 10 -10 9 -29 -3 -37 -6 -5 -6 -8 0 -8 10 0 10 -47 0 -170 -3 -36
-6 -72 -7 -80 0 -8 -5 -21 -11 -27 -6 -9 -6 -13 2 -13 7 0 10 -4 7 -9 -3 -5
-8 -26 -11 -47 -3 -22 -8 -45 -11 -53 -2 -8 -7 -30 -10 -50 -8 -49 -76 -255
-86 -259 -4 -2 -8 -8 -8 -14 0 -14 -62 -141 -73 -149 -5 -3 -9 -13 -11 -22 -1
-9 -9 -24 -17 -34 -8 -10 -26 -35 -40 -55 -13 -21 -28 -38 -32 -38 -5 0 -5 -5
-2 -10 3 -6 -1 -13 -9 -16 -9 -3 -16 -12 -16 -20 0 -7 -6 -17 -13 -21 -7 -4
-20 -18 -29 -31 -25 -37 -137 -159 -218 -237 -162 -157 -209 -198 -470 -405
-19 -15 -96 -73 -170 -128 -74 -56 -140 -105 -145 -110 -6 -5 -24 -17 -40 -28
-16 -10 -87 -62 -157 -114 -69 -52 -136 -102 -148 -110 -12 -8 -39 -30 -59
-47 -20 -18 -42 -33 -48 -33 -7 0 -13 -3 -13 -7 0 -5 -30 -30 -65 -58 -36 -27
-76 -59 -89 -70 -12 -11 -42 -36 -66 -55 -56 -46 -271 -260 -290 -289 -8 -13
-23 -33 -32 -45 -46 -56 -163 -264 -154 -273 8 -8 266 -8 266 -1 0 4 6 5 14 2
22 -8 226 -10 226 -2 0 4 11 3 24 -2 13 -5 26 -6 29 -4 6 6 73 6 102 1 11 -3
28 0 38 5 11 6 17 5 17 -2 0 -7 8 -9 23 -4 22 7 42 7 82 0 11 -2 28 1 38 6 11
6 17 5 17 -2 0 -7 8 -9 23 -4 22 7 42 7 82 0 11 -2 28 1 38 6 11 6 17 5 17 -2
0 -7 8 -9 23 -4 22 7 42 7 82 0 11 -2 28 1 38 6 9 5 17 5 17 1 0 -9 155 -7
170 2 5 3 10 3 10 -2 0 -4 38 -8 85 -8 47 0 85 3 85 7 0 4 6 5 14 2 22 -8 226
-10 226 -2 0 4 11 3 24 -2 13 -5 26 -6 29 -4 6 6 73 6 102 1 11 -3 28 0 38 5
11 6 17 5 17 -2 0 -7 8 -9 23 -4 22 7 42 7 82 0 11 -2 28 1 38 6 11 6 17 5 17
-2 0 -7 8 -9 23 -4 12 4 27 7 32 6 50 -6 175 -5 175 1 0 5 5 5 12 1 16 -10 58
-12 58 -2 0 4 10 4 23 -1 12 -5 27 -10 32 -12 10 -4 18 -904 9 -940 -4 -14
-196 -15 -1967 -15 l-1962 1 4 65 c2 36 5 81 7 100 2 19 5 61 8 92 3 32 7 74
10 93 4 20 9 57 12 83 3 26 8 49 12 52 4 3 8 25 9 50 2 35 35 183 57 255 27
90 59 180 85 240 5 11 12 27 15 35 3 8 10 22 15 30 4 8 23 44 41 80 29 57 134
227 149 240 4 3 20 23 36 45 77 103 228 262 353 371 18 16 49 44 69 62 20 17
39 32 42 32 3 0 20 13 36 28 17 15 48 41 70 57 22 17 42 32 45 35 3 4 28 22
55 41 28 18 52 37 55 40 3 3 28 20 55 39 28 19 52 37 55 40 3 4 15 10 28 14
12 4 20 12 17 17 -4 5 -1 9 4 9 10 0 95 57 128 85 6 5 27 20 45 33 18 13 56
40 84 60 27 20 63 46 78 57 16 11 34 26 41 33 8 6 18 12 24 12 6 0 11 5 11 10
0 6 6 10 14 10 8 0 16 4 18 8 2 5 32 31 68 58 36 26 67 51 70 54 3 4 12 11 21
16 9 5 33 23 53 39 33 27 92 73 136 108 35 28 128 105 165 137 96 84 294 291
339 355 28 39 54 71 58 73 4 2 8 8 8 14 0 6 10 27 22 47 13 20 23 38 23 41 1
3 9 21 20 40 10 19 20 40 21 45 1 6 8 24 14 40 7 17 14 37 16 45 1 8 5 26 8
40 22 95 24 106 33 200 8 86 9 299 0 375 -13 117 -69 324 -89 333 -5 2 -8 11
-8 20 0 29 -99 173 -163 237 -34 33 -82 74 -107 90 -64 42 -165 90 -182 87 -5
-1 -8 3 -8 10 0 6 -3 9 -6 6 -3 -3 -29 0 -57 8 -56 15 -112 24 -164 26 -18 1
-30 5 -26 11 4 6 1 7 -8 1 -8 -4 -43 -9 -79 -10 -80 -2 -148 -12 -215 -30 -27
-8 -58 -16 -68 -19 -45 -11 -144 -65 -211 -115 -82 -62 -178 -185 -230 -295
-41 -89 -44 -96 -57 -145 -7 -25 -13 -47 -14 -50 -19 -69 -25 -92 -29 -125
-11 -72 -15 -118 -21 -222 -2 -56 -5 -106 -6 -110 -1 -4 0 -10 1 -13 1 -3 2
-29 3 -58 2 -46 0 -52 -18 -53 -102 -4 -1017 0 -1022 5 -6 6 -11 234 -6 248 2
3 5 55 8 115 3 59 7 119 10 133 2 13 7 42 10 65 22 160 76 371 122 485 4 8 7
17 8 20 1 3 8 19 15 35 7 17 14 32 15 35 0 3 9 21 20 40 11 19 18 38 17 43 -1
4 2 7 8 7 5 0 10 6 10 13 0 12 68 124 115 190 78 111 222 251 349 342 16 11
34 26 42 33 8 7 14 11 14 8 0 -3 24 11 52 30 29 19 57 34 63 34 6 0 17 6 24
13 6 6 15 12 19 13 4 0 30 11 57 23 92 42 110 49 165 66 30 9 62 19 70 22 17
7 23 8 60 17 14 3 44 10 68 16 23 5 59 13 80 16 46 8 67 12 67 14 0 2 32 5
145 15 41 4 76 8 78 10 3 3 437 -1 437 -5z"/>
</g>
</svg>
