<svg width="320" height="198" viewBox="0 0 320 198" fill="none" xmlns="http://www.w3.org/2000/svg">
<path fill-rule="evenodd" clip-rule="evenodd" d="M0 99V198V141.625V0H320H160H0V99ZM161.368 40.7917C161.368 41.0438 161.778 41.25 162.279 41.25C162.781 41.25 163.191 41.4562 163.191 41.7083C163.191 41.9604 163.556 42.1667 164.002 42.1667C164.448 42.1667 165.109 42.5792 165.47 43.0833C165.832 43.5875 166.492 44 166.938 44C167.384 44 167.749 44.2062 167.749 44.4583C167.749 44.7104 168.16 44.9167 168.661 44.9167C169.162 44.9167 169.573 45.1229 169.573 45.375C169.573 45.6271 169.983 45.8333 170.484 45.8333C170.986 45.8333 171.396 46.0396 171.396 46.2917C171.396 46.5438 171.806 46.75 172.308 46.75C172.809 46.75 173.219 46.9562 173.219 47.2083C173.219 47.4604 173.63 47.6667 174.131 47.6667C174.632 47.6667 175.043 47.8729 175.043 48.125C175.043 48.3771 175.453 48.5833 175.954 48.5833C176.456 48.5833 176.866 48.7896 176.866 49.0417C176.866 49.2937 177.276 49.5 177.778 49.5C178.279 49.5 178.689 49.7062 178.689 49.9583C178.689 50.2104 179.1 50.4167 179.601 50.4167C180.103 50.4167 180.513 50.6229 180.513 50.875C180.513 51.1271 180.923 51.3333 181.424 51.3333C181.926 51.3333 182.336 51.5396 182.336 51.7917C182.336 52.0438 182.746 52.25 183.248 52.25C183.749 52.25 184.16 52.4562 184.16 52.7083C184.16 52.9604 184.57 53.1667 185.071 53.1667C185.573 53.1667 185.983 53.3729 185.983 53.625C185.983 53.8771 186.393 54.0833 186.895 54.0833C187.396 54.0833 187.806 54.2896 187.806 54.5417C187.806 54.7938 188.217 55 188.718 55C189.219 55 189.63 55.2062 189.63 55.4583C189.63 55.7104 190.04 55.9167 190.541 55.9167C191.043 55.9167 191.453 56.1229 191.453 56.375C191.453 56.6271 191.863 56.8333 192.365 56.8333C192.866 56.8333 193.276 57.0396 193.276 57.2917C193.276 57.5437 193.687 57.75 194.188 57.75C194.689 57.75 195.1 57.9562 195.1 58.2083C195.1 58.4604 195.51 58.6667 196.011 58.6667C196.513 58.6667 196.923 58.8729 196.923 59.125C196.923 59.3771 197.333 59.5833 197.835 59.5833C198.336 59.5833 198.746 59.7896 198.746 60.0417C198.746 60.2938 199.157 60.5 199.658 60.5C200.16 60.5 200.57 60.7062 200.57 60.9583C200.57 61.2104 200.98 61.4167 201.481 61.4167C201.983 61.4167 202.393 61.6229 202.393 61.875C202.393 62.1271 202.803 62.3333 203.305 62.3333C203.806 62.3333 204.217 62.5396 204.217 62.7917C204.217 63.0437 204.627 63.25 205.128 63.25C205.63 63.25 206.04 63.4563 206.04 63.7083C206.04 63.9604 206.405 64.1667 206.851 64.1667C207.297 64.1667 207.958 64.5792 208.319 65.0833C208.705 65.6214 209.499 66 210.243 66C210.94 66 211.51 66.2062 211.51 66.4583C211.51 66.7104 211.92 66.9167 212.422 66.9167C212.923 66.9167 213.333 67.1229 213.333 67.375C213.333 67.6271 213.698 67.8333 214.144 67.8333C214.591 67.8333 215.251 68.2458 215.613 68.75C215.974 69.2542 216.635 69.6667 217.081 69.6667C217.527 69.6667 217.892 69.8729 217.892 70.125C217.892 70.3771 218.302 70.5833 218.803 70.5833C219.305 70.5833 219.715 70.7896 219.715 71.0417C219.715 71.2937 220.125 71.5 220.627 71.5C221.128 71.5 221.538 71.7063 221.538 71.9583C221.538 72.2104 221.949 72.4167 222.45 72.4167C222.952 72.4167 223.362 72.6229 223.362 72.875C223.362 73.1271 223.932 73.3333 224.629 73.3333C225.373 73.3333 226.167 73.7119 226.553 74.25C226.914 74.7542 227.575 75.1667 228.021 75.1667C228.467 75.1667 228.832 75.3729 228.832 75.625C228.832 75.8771 229.242 76.0833 229.744 76.0833C230.245 76.0833 230.655 76.2896 230.655 76.5417C230.655 76.7937 231.066 77 231.567 77C232.068 77 232.479 77.2063 232.479 77.4583C232.479 77.7104 232.889 77.9167 233.39 77.9167C233.892 77.9167 234.302 78.1229 234.302 78.375C234.302 78.6271 234.712 78.8333 235.214 78.8333C235.715 78.8333 236.125 79.0396 236.125 79.2917C236.125 79.5437 236.536 79.75 237.037 79.75C237.538 79.75 237.949 79.9563 237.949 80.2083C237.949 80.4604 238.519 80.6667 239.215 80.6667C239.959 80.6667 240.753 81.0453 241.14 81.5833C241.501 82.0875 242.285 82.5 242.881 82.5C243.497 82.5 244.516 83.0926 245.242 83.875C246.028 84.7206 246.976 85.25 247.704 85.25C248.356 85.25 248.889 85.4563 248.889 85.7083C248.889 85.9604 249.299 86.1667 249.801 86.1667C250.302 86.1667 250.712 86.3729 250.712 86.625C250.712 86.8771 251.122 87.0833 251.624 87.0833C252.125 87.0833 252.536 87.2896 252.536 87.5417C252.536 87.7937 252.946 88 253.447 88C253.949 88 254.359 88.2063 254.359 88.4583C254.359 88.7104 254.769 88.9167 255.271 88.9167C255.772 88.9167 256.182 89.1229 256.182 89.375C256.182 89.6271 256.593 89.8333 257.094 89.8333C257.595 89.8333 258.006 90.0396 258.006 90.2917C258.006 90.5437 258.371 90.75 258.817 90.75C259.263 90.75 259.923 91.1625 260.285 91.6667C260.671 92.2048 261.465 92.5833 262.209 92.5833C262.906 92.5833 263.476 92.7896 263.476 93.0417C263.476 93.2937 263.841 93.5 264.287 93.5C264.733 93.5 265.393 93.9125 265.755 94.4167C266.116 94.9208 266.777 95.3333 267.223 95.3333C267.669 95.3333 268.034 95.5396 268.034 95.7917C268.034 96.0437 268.65 96.25 269.402 96.25C270.154 96.25 270.769 96.4563 270.769 96.7083C270.769 96.9604 271.134 97.1667 271.58 97.1667C272.026 97.1667 272.687 97.5792 273.048 98.0833C273.41 98.5875 274.07 99 274.517 99C274.962 99 275.328 99.2063 275.328 99.4583C275.328 99.7104 275.738 99.9167 276.239 99.9167C276.741 99.9167 277.151 100.123 277.151 100.375C277.151 100.627 277.473 100.833 277.867 100.833C278.788 100.833 279.886 101.937 279.886 102.863C279.886 103.278 279.499 103.583 278.974 103.583C278.473 103.583 278.063 103.79 278.063 104.042C278.063 104.294 277.652 104.5 277.151 104.5C276.65 104.5 276.239 104.706 276.239 104.958C276.239 105.21 275.829 105.417 275.328 105.417C274.826 105.417 274.416 105.623 274.416 105.875C274.416 106.127 274.006 106.333 273.504 106.333C273.003 106.333 272.593 106.54 272.593 106.792C272.593 107.044 272.182 107.25 271.681 107.25C271.179 107.25 270.769 107.456 270.769 107.708C270.769 107.96 270.359 108.167 269.858 108.167C269.356 108.167 268.946 108.373 268.946 108.625C268.946 108.877 268.536 109.083 268.034 109.083C267.533 109.083 267.122 109.29 267.122 109.542C267.122 109.794 266.712 110 266.211 110C265.709 110 265.299 110.206 265.299 110.458C265.299 110.71 264.889 110.917 264.387 110.917C263.886 110.917 263.476 111.123 263.476 111.375C263.476 111.627 263.065 111.833 262.564 111.833C262.063 111.833 261.652 112.04 261.652 112.292C261.652 112.544 261.242 112.75 260.741 112.75C260.239 112.75 259.829 112.956 259.829 113.208C259.829 113.46 259.214 113.667 258.462 113.667C257.709 113.667 257.094 113.873 257.094 114.125C257.094 114.377 256.684 114.583 256.182 114.583C255.681 114.583 255.271 114.79 255.271 115.042C255.271 115.294 254.906 115.5 254.46 115.5C254.013 115.5 253.353 115.912 252.991 116.417C252.63 116.921 251.969 117.333 251.523 117.333C251.077 117.333 250.712 117.54 250.712 117.792C250.712 118.044 250.097 118.25 249.345 118.25C248.593 118.25 247.977 118.456 247.977 118.708C247.977 118.96 247.567 119.167 247.066 119.167C246.564 119.167 246.154 119.373 246.154 119.625C246.154 119.877 245.789 120.083 245.343 120.083C244.897 120.083 244.236 120.496 243.875 121C243.489 121.538 242.694 121.917 241.951 121.917C241.254 121.917 240.684 122.123 240.684 122.375C240.684 122.627 240.068 122.833 239.316 122.833C238.253 122.833 237.949 123.037 237.949 123.75C237.949 124.447 237.645 124.667 236.682 124.667C235.938 124.667 235.144 125.045 234.758 125.583C234.395 126.089 233.578 126.5 232.934 126.5C232.291 126.5 231.473 126.911 231.111 127.417C230.725 127.955 229.931 128.333 229.187 128.333C228.49 128.333 227.92 128.54 227.92 128.792C227.92 129.044 227.51 129.25 227.009 129.25C226.507 129.25 226.097 129.456 226.097 129.708C226.097 129.96 225.481 130.167 224.729 130.167C223.666 130.167 223.362 130.37 223.362 131.083C223.362 131.796 223.058 132 221.994 132C221.242 132 220.627 132.206 220.627 132.458C220.627 132.71 220.217 132.917 219.715 132.917C219.214 132.917 218.803 133.123 218.803 133.375C218.803 133.627 218.393 133.833 217.892 133.833C217.39 133.833 216.98 134.04 216.98 134.292C216.98 134.544 216.57 134.75 216.068 134.75C215.567 134.75 215.157 134.956 215.157 135.208C215.157 135.46 214.746 135.667 214.245 135.667C213.744 135.667 213.333 135.873 213.333 136.125C213.333 136.377 212.923 136.583 212.422 136.583C211.92 136.583 211.51 136.79 211.51 137.042C211.51 137.294 210.94 137.5 210.243 137.5C209.499 137.5 208.705 137.879 208.319 138.417C207.958 138.921 207.297 139.333 206.851 139.333C206.405 139.333 206.04 139.54 206.04 139.792C206.04 140.044 205.63 140.25 205.128 140.25C204.627 140.25 204.217 140.456 204.217 140.708C204.217 140.96 203.646 141.167 202.95 141.167C202.206 141.167 201.412 141.545 201.026 142.083C200.663 142.589 199.845 143 199.202 143C198.559 143 197.741 143.411 197.379 143.917C197.016 144.422 196.199 144.833 195.556 144.833C194.912 144.833 194.095 145.244 193.732 145.75C193.371 146.254 192.71 146.667 192.264 146.667C191.818 146.667 191.453 146.873 191.453 147.125C191.453 147.377 190.838 147.583 190.085 147.583C189.333 147.583 188.718 147.79 188.718 148.042C188.718 148.294 188.353 148.5 187.907 148.5C187.461 148.5 186.8 148.912 186.439 149.417C186.053 149.955 185.259 150.333 184.515 150.333C183.818 150.333 183.248 150.54 183.248 150.792C183.248 151.044 182.838 151.25 182.336 151.25C181.835 151.25 181.424 151.456 181.424 151.708C181.424 151.96 181.014 152.167 180.513 152.167C180.011 152.167 179.601 152.373 179.601 152.625C179.601 152.877 179.191 153.083 178.689 153.083C178.188 153.083 177.778 153.29 177.778 153.542C177.778 153.794 177.367 154 176.866 154C176.365 154 175.954 154.206 175.954 154.458C175.954 154.71 175.544 154.917 175.043 154.917C174.541 154.917 174.131 155.123 174.131 155.375C174.131 155.627 173.721 155.833 173.219 155.833C172.718 155.833 172.308 156.04 172.308 156.292C172.308 156.544 171.897 156.75 171.396 156.75C170.895 156.75 170.484 156.956 170.484 157.208C170.484 157.46 170.074 157.667 169.573 157.667C169.071 157.667 168.661 157.873 168.661 158.125C168.661 158.377 168.251 158.583 167.749 158.583C167.248 158.583 166.838 158.79 166.838 159.042C166.838 159.294 166.267 159.5 165.571 159.5C164.827 159.5 164.033 159.879 163.647 160.417C163.285 160.921 162.642 161.333 162.217 161.333C161.791 161.333 161.339 161.591 161.212 161.906C161.038 162.338 160.86 162.309 160.49 161.792C160.055 161.181 159.945 161.181 159.51 161.792C159.14 162.309 158.962 162.338 158.788 161.906C158.661 161.591 158.163 161.333 157.683 161.333C157.202 161.333 156.809 161.127 156.809 160.875C156.809 160.623 156.399 160.417 155.897 160.417C155.396 160.417 154.986 160.21 154.986 159.958C154.986 159.706 154.415 159.5 153.719 159.5C152.975 159.5 152.181 159.121 151.795 158.583C151.433 158.079 150.773 157.667 150.327 157.667C149.881 157.667 149.516 157.46 149.516 157.208C149.516 156.956 149.105 156.75 148.604 156.75C148.103 156.75 147.692 156.544 147.692 156.292C147.692 156.04 147.282 155.833 146.781 155.833C146.279 155.833 145.869 155.627 145.869 155.375C145.869 155.123 145.459 154.917 144.957 154.917C144.456 154.917 144.046 154.71 144.046 154.458C144.046 154.206 143.635 154 143.134 154C142.632 154 142.222 153.794 142.222 153.542C142.222 153.29 141.812 153.083 141.311 153.083C140.809 153.083 140.399 152.877 140.399 152.625C140.399 152.373 139.783 152.167 139.031 152.167C138.279 152.167 137.664 151.96 137.664 151.708C137.664 151.456 137.254 151.25 136.752 151.25C136.251 151.25 135.84 151.044 135.84 150.792C135.84 150.54 135.43 150.333 134.929 150.333C134.427 150.333 134.017 150.127 134.017 149.875C134.017 149.623 133.652 149.417 133.206 149.417C132.76 149.417 132.099 149.004 131.738 148.5C131.352 147.962 130.558 147.583 129.814 147.583C129.117 147.583 128.547 147.377 128.547 147.125C128.547 146.873 128.137 146.667 127.635 146.667C127.134 146.667 126.724 146.46 126.724 146.208C126.724 145.956 126.313 145.75 125.812 145.75C125.311 145.75 124.9 145.544 124.9 145.292C124.9 145.04 124.49 144.833 123.989 144.833C123.487 144.833 123.077 144.627 123.077 144.375C123.077 144.123 122.667 143.917 122.165 143.917C121.664 143.917 121.254 143.71 121.254 143.458C121.254 143.206 120.843 143 120.342 143C119.84 143 119.43 142.794 119.43 142.542C119.43 142.29 119.02 142.083 118.519 142.083C118.017 142.083 117.607 141.877 117.607 141.625C117.607 141.373 117.197 141.167 116.695 141.167C116.194 141.167 115.783 140.96 115.783 140.708C115.783 140.456 115.373 140.25 114.872 140.25C114.37 140.25 113.96 140.044 113.96 139.792C113.96 139.54 113.39 139.333 112.693 139.333C111.949 139.333 111.155 138.955 110.769 138.417C110.407 137.911 109.589 137.5 108.946 137.5C108.303 137.5 107.485 137.089 107.123 136.583C106.76 136.078 105.942 135.667 105.299 135.667C104.656 135.667 103.838 135.256 103.476 134.75C103.113 134.244 102.296 133.833 101.652 133.833C101.009 133.833 100.191 133.422 99.829 132.917C99.443 132.379 98.6489 132 97.905 132C97.2084 132 96.6382 131.794 96.6382 131.542C96.6382 131.29 96.2279 131.083 95.7265 131.083C95.2251 131.083 94.8148 130.877 94.8148 130.625C94.8148 130.373 94.4046 130.167 93.9031 130.167C93.4017 130.167 92.9915 129.96 92.9915 129.708C92.9915 129.456 92.5812 129.25 92.0798 129.25C91.5783 129.25 91.1681 129.044 91.1681 128.792C91.1681 128.54 90.7578 128.333 90.2564 128.333C89.755 128.333 89.3447 128.127 89.3447 127.875C89.3447 127.623 88.9345 127.417 88.433 127.417C87.9316 127.417 87.5214 127.21 87.5214 126.958C87.5214 126.706 87.1562 126.5 86.7104 126.5C86.2642 126.5 85.6036 126.087 85.2422 125.583C84.8561 125.045 84.062 124.667 83.3181 124.667C82.6215 124.667 82.0513 124.46 82.0513 124.208C82.0513 123.956 81.481 123.75 80.7845 123.75C80.0406 123.75 79.2465 123.371 78.8604 122.833C78.4743 122.295 77.6802 121.917 76.9363 121.917C76.2398 121.917 75.6695 121.71 75.6695 121.458C75.6695 121.206 75.3044 121 74.8586 121C74.4123 121 73.7518 120.588 73.3903 120.083C73.0288 119.579 72.3683 119.167 71.9221 119.167C71.4762 119.167 71.1111 118.96 71.1111 118.708C71.1111 118.456 70.7009 118.25 70.1994 118.25C69.698 118.25 69.2877 118.044 69.2877 117.792C69.2877 117.54 68.8775 117.333 68.3761 117.333C67.8746 117.333 67.4644 117.127 67.4644 116.875C67.4644 116.623 66.849 116.417 66.0969 116.417C65.3447 116.417 64.7293 116.21 64.7293 115.958C64.7293 115.706 64.3191 115.5 63.8177 115.5C63.3162 115.5 62.906 115.294 62.906 115.042C62.906 114.79 62.4957 114.583 61.9943 114.583C61.4929 114.583 61.0826 114.377 61.0826 114.125C61.0826 113.873 60.6724 113.667 60.1709 113.667C59.6695 113.667 59.2593 113.46 59.2593 113.208C59.2593 112.956 58.849 112.75 58.3476 112.75C57.8462 112.75 57.4359 112.544 57.4359 112.292C57.4359 112.04 57.0256 111.833 56.5242 111.833C56.0228 111.833 55.6125 111.627 55.6125 111.375C55.6125 111.123 55.2023 110.917 54.7008 110.917C54.1994 110.917 53.7892 110.71 53.7892 110.458C53.7892 110.206 53.3789 110 52.8775 110C52.3761 110 51.9658 109.794 51.9658 109.542C51.9658 109.29 51.5556 109.083 51.0541 109.083C50.5527 109.083 50.1424 108.877 50.1424 108.625C50.1424 108.373 49.5271 108.167 48.7749 108.167C48.0228 108.167 47.4074 107.96 47.4074 107.708C47.4074 107.456 46.9972 107.25 46.4957 107.25C45.9943 107.25 45.584 107.044 45.584 106.792C45.584 106.54 45.1738 106.333 44.6724 106.333C44.1709 106.333 43.7607 106.127 43.7607 105.875C43.7607 105.623 43.3504 105.417 42.849 105.417C42.3476 105.417 41.9373 105.21 41.9373 104.958C41.9373 104.706 41.5271 104.5 41.0256 104.5C40.5242 104.5 40.114 104.294 40.114 104.042C40.114 103.79 39.7917 103.583 39.3978 103.583C38.7068 103.583 37.3789 102.55 37.3789 102.012C37.3789 101.868 37.744 101.75 38.1899 101.75C38.6361 101.75 39.2966 101.338 39.6581 100.833C40.0205 100.328 40.8383 99.9167 41.4815 99.9167C42.1247 99.9167 42.9424 99.5055 43.3048 99C43.6663 98.4958 44.3268 98.0833 44.7731 98.0833C45.2189 98.0833 45.584 97.8771 45.584 97.625C45.584 97.3729 46.1543 97.1667 46.8508 97.1667C47.5948 97.1667 48.3888 96.7881 48.7749 96.25C49.1373 95.7445 49.9551 95.3333 50.5983 95.3333C51.2415 95.3333 52.0593 94.9222 52.4216 94.4167C52.7831 93.9125 53.4436 93.5 53.8899 93.5C54.3357 93.5 54.7008 93.2937 54.7008 93.0417C54.7008 92.7896 55.3162 92.5833 56.0684 92.5833C56.8205 92.5833 57.4359 92.3771 57.4359 92.125C57.4359 91.8729 57.8462 91.6667 58.3476 91.6667C58.849 91.6667 59.2593 91.4604 59.2593 91.2083C59.2593 90.9563 59.6695 90.75 60.1709 90.75C60.6724 90.75 61.0826 90.5437 61.0826 90.2917C61.0826 90.0396 61.4478 89.8333 61.8936 89.8333C62.3398 89.8333 63.0003 89.4208 63.3618 88.9167C63.7479 88.3786 64.542 88 65.2859 88C65.9824 88 66.5527 87.7937 66.5527 87.5417C66.5527 87.2896 66.963 87.0833 67.4644 87.0833C67.9658 87.0833 68.3761 86.8771 68.3761 86.625C68.3761 86.3729 68.7863 86.1667 69.2877 86.1667C69.7892 86.1667 70.1994 85.9604 70.1994 85.7083C70.1994 85.4563 70.6097 85.25 71.1111 85.25C71.6125 85.25 72.0228 85.0437 72.0228 84.7917C72.0228 84.5396 72.3879 84.3333 72.8337 84.3333C73.28 84.3333 73.9405 83.9208 74.302 83.4167C74.6635 82.9125 75.324 82.5 75.7702 82.5C76.2161 82.5 76.5812 82.2938 76.5812 82.0417C76.5812 81.7896 76.9914 81.5833 77.4929 81.5833C77.9943 81.5833 78.4045 81.3771 78.4045 81.125C78.4045 80.8729 78.8148 80.6667 79.3162 80.6667C79.8177 80.6667 80.2279 80.4604 80.2279 80.2083C80.2279 79.9563 80.6382 79.75 81.1396 79.75C81.641 79.75 82.0513 79.5437 82.0513 79.2917C82.0513 79.0396 82.6667 78.8333 83.4188 78.8333C84.1709 78.8333 84.7863 78.6271 84.7863 78.375C84.7863 78.1229 85.1966 77.9167 85.698 77.9167C86.1994 77.9167 86.6097 77.7104 86.6097 77.4583C86.6097 77.2063 87.0199 77 87.5214 77C88.0228 77 88.433 76.7937 88.433 76.5417C88.433 76.2896 88.8433 76.0833 89.3447 76.0833C89.8461 76.0833 90.2564 75.8771 90.2564 75.625C90.2564 75.3729 90.6215 75.1667 91.0673 75.1667C91.5136 75.1667 92.1741 74.7542 92.5356 74.25C92.9217 73.7119 93.7158 73.3333 94.4597 73.3333C95.1562 73.3333 95.7265 73.1271 95.7265 72.875C95.7265 72.6229 96.1367 72.4167 96.6382 72.4167C97.1396 72.4167 97.5499 72.2104 97.5499 71.9583C97.5499 71.7063 97.9601 71.5 98.4615 71.5C98.963 71.5 99.3732 71.2937 99.3732 71.0417C99.3732 70.7896 99.7383 70.5833 100.184 70.5833C100.63 70.5833 101.291 70.1708 101.652 69.6667C102.014 69.1625 102.674 68.75 103.121 68.75C103.566 68.75 103.932 68.5438 103.932 68.2917C103.932 68.0396 104.502 67.8333 105.198 67.8333C105.942 67.8333 106.736 67.4548 107.123 66.9167C107.485 66.4111 108.303 66 108.946 66C109.589 66 110.407 65.5889 110.769 65.0833C111.155 64.5452 111.949 64.1667 112.693 64.1667C113.39 64.1667 113.96 63.9604 113.96 63.7083C113.96 63.4563 114.37 63.25 114.872 63.25C115.373 63.25 115.783 63.0437 115.783 62.7917C115.783 62.5396 116.194 62.3333 116.695 62.3333C117.197 62.3333 117.607 62.1271 117.607 61.875C117.607 61.6229 117.972 61.4167 118.418 61.4167C118.864 61.4167 119.525 61.0042 119.886 60.5C120.248 59.9958 120.908 59.5833 121.354 59.5833C121.8 59.5833 122.165 59.3771 122.165 59.125C122.165 58.8729 122.575 58.6667 123.077 58.6667C123.578 58.6667 123.989 58.4604 123.989 58.2083C123.989 57.9562 124.604 57.75 125.356 57.75C126.108 57.75 126.724 57.5437 126.724 57.2917C126.724 57.0396 127.134 56.8333 127.635 56.8333C128.137 56.8333 128.547 56.6271 128.547 56.375C128.547 56.1229 128.912 55.9167 129.358 55.9167C129.804 55.9167 130.465 55.5042 130.826 55C131.188 54.4958 131.848 54.0833 132.294 54.0833C132.74 54.0833 133.105 53.8771 133.105 53.625C133.105 53.3729 133.516 53.1667 134.017 53.1667C134.519 53.1667 134.929 52.9604 134.929 52.7083C134.929 52.4562 135.339 52.25 135.84 52.25C136.342 52.25 136.752 52.0438 136.752 51.7917C136.752 51.5396 137.322 51.3333 138.019 51.3333C138.763 51.3333 139.557 50.9548 139.943 50.4167C140.305 49.9111 141.123 49.5 141.766 49.5C142.41 49.5 143.227 49.0889 143.59 48.5833C143.951 48.0792 144.612 47.6667 145.058 47.6667C145.504 47.6667 145.869 47.4604 145.869 47.2083C145.869 46.9562 146.279 46.75 146.781 46.75C147.282 46.75 147.692 46.5438 147.692 46.2917C147.692 46.0396 148.103 45.8333 148.604 45.8333C149.105 45.8333 149.516 45.6271 149.516 45.375C149.516 45.1229 149.926 44.9167 150.427 44.9167C150.929 44.9167 151.339 44.7104 151.339 44.4583C151.339 44.2062 151.749 44 152.251 44C152.752 44 153.162 43.7937 153.162 43.5417C153.162 43.2896 153.573 43.0833 154.074 43.0833C154.575 43.0833 154.986 42.8771 154.986 42.625C154.986 42.3729 155.396 42.1667 155.897 42.1667C156.399 42.1667 156.809 41.9604 156.809 41.7083C156.809 41.4562 157.219 41.25 157.721 41.25C158.222 41.25 158.632 41.0438 158.632 40.7917C158.632 40.5396 159.248 40.3333 160 40.3333C160.752 40.3333 161.368 40.5396 161.368 40.7917ZM153.162 60.9583C153.162 61.2104 152.342 61.4167 151.339 61.4167C150.336 61.4167 149.516 61.6229 149.516 61.875C149.516 62.1271 149.105 62.3333 148.604 62.3333C148.103 62.3333 147.692 62.5396 147.692 62.7917C147.692 63.0437 147.282 63.25 146.781 63.25C146.279 63.25 145.869 63.4563 145.869 63.7083C145.869 63.9604 145.557 64.1667 145.175 64.1667C144.273 64.1667 139.487 68.9782 139.487 69.8857C139.487 70.2694 139.282 70.5833 139.031 70.5833C138.781 70.5833 138.575 70.9958 138.575 71.5C138.575 72.0042 138.37 72.4167 138.12 72.4167C137.869 72.4167 137.664 72.8292 137.664 73.3333C137.664 73.8375 137.459 74.25 137.208 74.25C136.957 74.25 136.752 74.8688 136.752 75.625C136.752 76.3813 136.547 77 136.296 77C136.046 77 135.84 78.0312 135.84 79.2917C135.84 80.5521 135.635 81.5833 135.385 81.5833C135.131 81.5833 134.929 82.8057 134.929 84.3333C134.929 85.8521 136.16 87.0833 137.679 87.0833H142.222H147.224C148.49 87.0833 149.516 86.0573 149.516 84.7917C149.516 83.5312 149.721 82.5 149.971 82.5C150.222 82.5 150.427 81.675 150.427 80.6667C150.427 79.6583 150.632 78.8333 150.883 78.8333C151.134 78.8333 151.339 78.5171 151.339 78.1307C151.339 77.2182 154.291 74.25 155.199 74.25C155.583 74.25 155.897 74.0438 155.897 73.7917C155.897 73.5245 157.417 73.3333 159.544 73.3333C161.672 73.3333 163.191 73.5245 163.191 73.7917C163.191 74.0438 163.713 74.25 164.351 74.25C165.631 74.25 167.749 76.0948 167.749 77.2085C167.749 77.5981 167.954 77.9167 168.205 77.9167C168.456 77.9167 168.661 78.3292 168.661 78.8333C168.661 79.3375 168.866 79.75 169.117 79.75C169.383 79.75 169.573 81.2776 169.573 83.4167C169.573 85.5557 169.383 87.0833 169.117 87.0833C168.866 87.0833 168.661 87.7021 168.661 88.4583C168.661 89.2146 168.456 89.8333 168.205 89.8333C167.954 89.8333 167.749 90.2005 167.749 90.6487C167.749 91.0974 167.339 91.7616 166.838 92.125C166.336 92.4885 165.926 93.0591 165.926 93.3928C165.926 94.132 163.887 96.25 163.176 96.25C162.894 96.25 161.875 97.075 160.912 98.0833C159.948 99.0917 158.918 99.9167 158.623 99.9167C158.328 99.9167 157.512 100.535 156.809 101.292C156.107 102.048 155.286 102.667 154.986 102.667C154.685 102.667 153.865 103.285 153.162 104.042C152.46 104.798 151.602 105.417 151.257 105.417C150.911 105.417 150.333 105.829 149.971 106.333C149.61 106.837 149.049 107.25 148.725 107.25C147.956 107.25 140.399 114.848 140.399 115.621C140.399 115.947 139.989 116.512 139.487 116.875C138.986 117.238 138.575 117.903 138.575 118.351C138.575 118.8 138.37 119.167 138.12 119.167C137.869 119.167 137.664 119.579 137.664 120.083C137.664 120.588 137.459 121 137.208 121C136.957 121 136.752 121.412 136.752 121.917C136.752 122.421 136.547 122.833 136.296 122.833C136.046 122.833 135.84 123.658 135.84 124.667C135.84 125.675 135.635 126.5 135.385 126.5C135.134 126.5 134.929 127.531 134.929 128.792C134.929 130.052 134.724 131.083 134.473 131.083C133.774 131.083 133.932 134.271 134.668 135.012C135.217 135.564 139.244 135.667 160.196 135.667H182.071C183.728 135.667 185.071 134.324 185.071 132.667V128.792V124.917C185.071 123.26 183.728 121.917 182.071 121.917H169.117C160.342 121.917 153.162 121.809 153.162 121.677C153.162 121.155 158.195 116.417 158.75 116.417C159.076 116.417 159.639 116.004 160 115.5C160.361 114.996 160.977 114.583 161.368 114.583C161.758 114.583 162.374 114.171 162.735 113.667C163.097 113.162 163.675 112.75 164.021 112.75C164.366 112.75 165.223 112.131 165.926 111.375C166.628 110.619 167.449 110 167.749 110C168.05 110 168.87 109.381 169.573 108.625C170.275 107.869 171.091 107.25 171.387 107.25C171.682 107.25 172.712 106.425 173.675 105.417C174.639 104.408 175.658 103.583 175.939 103.583C176.609 103.583 178.689 101.485 178.689 100.809C178.689 100.52 179.305 99.7063 180.057 99C180.809 98.2937 181.424 97.4311 181.424 97.0842C181.424 96.7367 181.835 96.1551 182.336 95.7917C182.871 95.4035 183.248 94.605 183.248 93.857C183.248 93.1567 183.453 92.5833 183.704 92.5833C183.954 92.5833 184.16 91.7583 184.16 90.75C184.16 89.7417 184.365 88.9167 184.615 88.9167C184.889 88.9167 185.071 87.0833 185.071 84.3333C185.071 81.5833 184.889 79.75 184.615 79.75C184.365 79.75 184.16 78.925 184.16 77.9167C184.16 76.9083 183.954 76.0833 183.704 76.0833C183.453 76.0833 183.248 75.4646 183.248 74.7083C183.248 73.9521 183.043 73.3333 182.792 73.3333C182.541 73.3333 182.336 72.9662 182.336 72.518C182.336 72.0692 181.926 71.4051 181.424 71.0417C180.923 70.6782 180.513 70.1103 180.513 69.7794C180.513 68.9975 177.532 66 176.754 66C176.425 66 175.86 65.5875 175.499 65.0833C175.137 64.5792 174.477 64.1667 174.03 64.1667C173.584 64.1667 173.219 63.9604 173.219 63.7083C173.219 63.4563 172.809 63.25 172.308 63.25C171.806 63.25 171.396 63.0437 171.396 62.7917C171.396 62.5396 170.986 62.3333 170.484 62.3333C169.983 62.3333 169.573 62.1271 169.573 61.875C169.573 61.6229 168.752 61.4167 167.749 61.4167C166.746 61.4167 165.926 61.2104 165.926 60.9583C165.926 60.6746 163.495 60.5 159.544 60.5C155.593 60.5 153.162 60.6746 153.162 60.9583Z" fill="#FF9B00"/>
</svg>
